<svg width="119" height="14" viewBox="0 0 119 14" fill="none" xmlns="http://www.w3.org/2000/svg">
<path d="M5.89512 2.03C5.46512 2.03 5.08012 2.115 4.74012 2.285C4.41012 2.455 4.13012 2.7 3.90012 3.02C3.67012 3.33 3.49512 3.71 3.37512 4.16C3.26512 4.61 3.21012 5.115 3.21012 5.675C3.21012 6.435 3.30012 7.085 3.48012 7.625C3.67012 8.155 3.96512 8.56 4.36512 8.84C4.76512 9.12 5.27512 9.26 5.89512 9.26C6.33512 9.26 6.77012 9.21 7.20012 9.11C7.64012 9.01 8.11512 8.87 8.62512 8.69V10.595C8.15512 10.785 7.69012 10.925 7.23012 11.015C6.77012 11.105 6.25512 11.15 5.68512 11.15C4.58512 11.15 3.67512 10.925 2.95512 10.475C2.24512 10.015 1.72012 9.375 1.38012 8.555C1.04012 7.725 0.870117 6.76 0.870117 5.66C0.870117 4.85 0.980117 4.11 1.20012 3.44C1.42012 2.76 1.74012 2.175 2.16012 1.685C2.59012 1.195 3.11512 0.815 3.73512 0.545C4.36512 0.275 5.08512 0.14 5.89512 0.14C6.42512 0.14 6.95512 0.21 7.48512 0.35C8.02512 0.48 8.54012 0.66 9.03012 0.89L8.29512 2.735C7.89512 2.545 7.49012 2.38 7.08012 2.24C6.68012 2.1 6.28512 2.03 5.89512 2.03Z" fill="#E2E247"/>
<path d="M20.6209 5.63C20.6209 6.46 20.5159 7.215 20.3059 7.895C20.1059 8.565 19.7959 9.145 19.3759 9.635C18.9659 10.125 18.4359 10.5 17.7859 10.76C17.1459 11.02 16.3909 11.15 15.5209 11.15C14.6509 11.15 13.8909 11.02 13.2409 10.76C12.6009 10.49 12.0709 10.115 11.6509 9.635C11.2409 9.145 10.9309 8.56 10.7209 7.88C10.5209 7.2 10.4209 6.445 10.4209 5.615C10.4209 4.505 10.6009 3.54 10.9609 2.72C11.3309 1.9 11.8909 1.265 12.6409 0.815C13.4009 0.355 14.3659 0.125 15.5359 0.125C16.6959 0.125 17.6509 0.355 18.4009 0.815C19.1509 1.265 19.7059 1.905 20.0659 2.735C20.4359 3.555 20.6209 4.52 20.6209 5.63ZM12.8059 5.63C12.8059 6.38 12.9009 7.025 13.0909 7.565C13.2809 8.105 13.5759 8.52 13.9759 8.81C14.3759 9.1 14.8909 9.245 15.5209 9.245C16.1709 9.245 16.6909 9.1 17.0809 8.81C17.4809 8.52 17.7709 8.105 17.9509 7.565C18.1409 7.025 18.2359 6.38 18.2359 5.63C18.2359 4.5 18.0259 3.615 17.6059 2.975C17.1859 2.335 16.4959 2.015 15.5359 2.015C14.8959 2.015 14.3759 2.16 13.9759 2.45C13.5759 2.74 13.2809 3.155 13.0909 3.695C12.9009 4.235 12.8059 4.88 12.8059 5.63Z" fill="#DDDDDD"/>
<path d="M26.8444 11H21.9694V9.71L23.2744 9.11V2.18L21.9694 1.58V0.29H26.8444V1.58L25.5394 2.18V9.11L26.8444 9.71V11Z" fill="#DDDDDD"/>
<path d="M38.1645 11H35.2845L30.6195 2.9H30.5595C30.5695 3.15 30.5795 3.405 30.5895 3.665C30.5995 3.915 30.6095 4.17 30.6195 4.43C30.6395 4.68 30.6545 4.935 30.6645 5.195C30.6745 5.445 30.6845 5.7 30.6945 5.96V11H28.6695V0.29H31.5345L36.1845 8.315H36.2295C36.2195 8.065 36.2095 7.82 36.1995 7.58C36.1895 7.33 36.1795 7.085 36.1695 6.845C36.1695 6.595 36.1645 6.35 36.1545 6.11C36.1445 5.86 36.1345 5.61 36.1245 5.36V0.29H38.1645V11Z" fill="#DDDDDD"/>
<path d="M45.7166 13.37H39.4916V12.35H45.7166V13.37Z" fill="#DDDDDD"/>
<path d="M51.8836 13.37H45.6586V12.35H51.8836V13.37Z" fill="#DDDDDD"/>
<path d="M57.3306 11H55.0656V2.18H52.1556V0.29H60.2406V2.18H57.3306V11Z" fill="#E2E247"/>
<path d="M65.0121 0.29C65.9821 0.29 66.7821 0.41 67.4121 0.65C68.0421 0.88 68.5121 1.235 68.8221 1.715C69.1321 2.185 69.2871 2.78 69.2871 3.5C69.2871 3.99 69.1921 4.42 69.0021 4.79C68.8221 5.15 68.5771 5.46 68.2671 5.72C67.9671 5.97 67.6421 6.175 67.2921 6.335L70.4421 11H67.9221L65.3721 6.89H64.1571V11H61.8921V0.29H65.0121ZM64.8471 2.15H64.1571V5.045H64.8921C65.3921 5.045 65.7971 4.99 66.1071 4.88C66.4171 4.77 66.6421 4.605 66.7821 4.385C66.9221 4.155 66.9921 3.88 66.9921 3.56C66.9921 3.22 66.9121 2.95 66.7521 2.75C66.6021 2.54 66.3671 2.39 66.0471 2.3C65.7371 2.2 65.3371 2.15 64.8471 2.15Z" fill="#DDDDDD"/>
<path d="M78.3494 11L77.5695 8.45H73.6694L72.8895 11H70.4445L74.2244 0.245H76.9995L80.7944 11H78.3494ZM76.2495 4.055C76.1995 3.885 76.1345 3.67 76.0545 3.41C75.9745 3.15 75.8945 2.885 75.8145 2.615C75.7345 2.345 75.6695 2.11 75.6195 1.91C75.5695 2.11 75.4995 2.36 75.4095 2.66C75.3295 2.95 75.2494 3.23 75.1694 3.5C75.0994 3.76 75.0444 3.945 75.0044 4.055L74.2394 6.545H77.0294L76.2495 4.055Z" fill="#DDDDDD"/>
<path d="M86.4029 2.03C85.9729 2.03 85.5879 2.115 85.2479 2.285C84.9179 2.455 84.6379 2.7 84.4079 3.02C84.1779 3.33 84.0029 3.71 83.8829 4.16C83.7729 4.61 83.7179 5.115 83.7179 5.675C83.7179 6.435 83.8079 7.085 83.9879 7.625C84.1779 8.155 84.4729 8.56 84.8729 8.84C85.2729 9.12 85.7829 9.26 86.4029 9.26C86.8429 9.26 87.2779 9.21 87.7079 9.11C88.1479 9.01 88.6229 8.87 89.1329 8.69V10.595C88.6629 10.785 88.1979 10.925 87.7379 11.015C87.2779 11.105 86.7629 11.15 86.1929 11.15C85.0929 11.15 84.1829 10.925 83.4629 10.475C82.7529 10.015 82.2279 9.375 81.8879 8.555C81.5479 7.725 81.3779 6.76 81.3779 5.66C81.3779 4.85 81.4879 4.11 81.7079 3.44C81.9279 2.76 82.2479 2.175 82.6679 1.685C83.0979 1.195 83.6229 0.815 84.2429 0.545C84.8729 0.275 85.5929 0.14 86.4029 0.14C86.9329 0.14 87.4629 0.21 87.9929 0.35C88.5329 0.48 89.0479 0.66 89.5379 0.89L88.8029 2.735C88.4029 2.545 87.9979 2.38 87.5879 2.24C87.1879 2.1 86.7929 2.03 86.4029 2.03Z" fill="#DDDDDD"/>
<path d="M100.019 11H97.4387L94.6337 6.485L93.6737 7.175V11H91.4087V0.29H93.6737V5.195C93.8237 4.985 93.9737 4.775 94.1237 4.565C94.2737 4.355 94.4237 4.145 94.5737 3.935L97.4687 0.29H99.9887L96.2537 5.03L100.019 11Z" fill="#DDDDDD"/>
<path d="M107.535 11H101.37V0.29H107.535V2.15H103.635V4.505H107.265V6.365H103.635V9.125H107.535V11Z" fill="#DDDDDD"/>
<path d="M112.883 0.29C113.853 0.29 114.653 0.41 115.283 0.65C115.913 0.88 116.383 1.235 116.693 1.715C117.003 2.185 117.158 2.78 117.158 3.5C117.158 3.99 117.063 4.42 116.873 4.79C116.693 5.15 116.448 5.46 116.138 5.72C115.838 5.97 115.513 6.175 115.163 6.335L118.313 11H115.793L113.243 6.89H112.028V11H109.763V0.29H112.883ZM112.718 2.15H112.028V5.045H112.763C113.263 5.045 113.668 4.99 113.978 4.88C114.288 4.77 114.513 4.605 114.653 4.385C114.793 4.155 114.863 3.88 114.863 3.56C114.863 3.22 114.783 2.95 114.623 2.75C114.473 2.54 114.238 2.39 113.918 2.3C113.608 2.2 113.208 2.15 112.718 2.15Z" fill="#DDDDDD"/>
</svg>
